<svg xmlns="http://www.w3.org/2000/svg" viewBox="0 0 64 64"><rect width="64" height="64" rx="13" fill="#12100d"/><line x1="32.0" y1="28.0" x2="32.5" y2="27.8" stroke="#3b6fd4" stroke-width="2.2" stroke-linecap="round"/><line x1="32.5" y1="27.8" x2="33.1" y2="27.7" stroke="#3d6fd1" stroke-width="2.2" stroke-linecap="round"/><line x1="33.1" y1="27.7" x2="33.8" y2="27.8" stroke="#3f70cf" stroke-width="2.2" stroke-linecap="round"/><line x1="33.8" y1="27.8" x2="34.4" y2="27.8" stroke="#4271cd" stroke-width="2.2" stroke-linecap="round"/><line x1="34.4" y1="27.8" x2="35.0" y2="28.0" stroke="#4472cb" stroke-width="2.3" stroke-linecap="round"/><line x1="35.0" y1="28.0" x2="35.7" y2="28.3" stroke="#4672c9" stroke-width="2.3" stroke-linecap="round"/><line x1="35.7" y1="28.3" x2="36.3" y2="28.7" stroke="#4973c7" stroke-width="2.3" stroke-linecap="round"/><line x1="36.3" y1="28.7" x2="36.8" y2="29.2" stroke="#4b74c5" stroke-width="2.3" stroke-linecap="round"/><line x1="36.8" y1="29.2" x2="37.4" y2="29.8" stroke="#4e75c3" stroke-width="2.3" stroke-linecap="round"/><line x1="37.4" y1="29.8" x2="37.8" y2="30.4" stroke="#5075c1" stroke-width="2.4" stroke-linecap="round"/><line x1="37.8" y1="30.4" x2="38.1" y2="31.2" stroke="#5276bf" stroke-width="2.4" stroke-linecap="round"/><line x1="38.1" y1="31.2" x2="38.4" y2="32.0" stroke="#5577bd" stroke-width="2.4" stroke-linecap="round"/><line x1="38.4" y1="32.0" x2="38.5" y2="32.9" stroke="#5778ba" stroke-width="2.4" stroke-linecap="round"/><line x1="38.5" y1="32.9" x2="38.6" y2="33.8" stroke="#5979b8" stroke-width="2.4" stroke-linecap="round"/><line x1="38.6" y1="33.8" x2="38.5" y2="34.7" stroke="#5c79b6" stroke-width="2.4" stroke-linecap="round"/><line x1="38.5" y1="34.7" x2="38.2" y2="35.6" stroke="#5e7ab4" stroke-width="2.5" stroke-linecap="round"/><line x1="38.2" y1="35.6" x2="37.9" y2="36.5" stroke="#617bb2" stroke-width="2.5" stroke-linecap="round"/><line x1="37.9" y1="36.5" x2="37.4" y2="37.4" stroke="#637cb0" stroke-width="2.5" stroke-linecap="round"/><line x1="37.4" y1="37.4" x2="36.7" y2="38.2" stroke="#657cae" stroke-width="2.5" stroke-linecap="round"/><line x1="36.7" y1="38.2" x2="36.0" y2="38.9" stroke="#687dac" stroke-width="2.5" stroke-linecap="round"/><line x1="36.0" y1="38.9" x2="35.1" y2="39.6" stroke="#6a7eaa" stroke-width="2.5" stroke-linecap="round"/><line x1="35.1" y1="39.6" x2="34.2" y2="40.1" stroke="#6c7fa8" stroke-width="2.6" stroke-linecap="round"/><line x1="34.2" y1="40.1" x2="33.1" y2="40.5" stroke="#6f80a6" stroke-width="2.6" stroke-linecap="round"/><line x1="33.1" y1="40.5" x2="32.0" y2="40.8" stroke="#7180a3" stroke-width="2.6" stroke-linecap="round"/><line x1="32.0" y1="40.8" x2="30.8" y2="40.9" stroke="#7481a1" stroke-width="2.6" stroke-linecap="round"/><line x1="30.8" y1="40.9" x2="29.6" y2="40.9" stroke="#76829f" stroke-width="2.6" stroke-linecap="round"/><line x1="29.6" y1="40.9" x2="28.4" y2="40.7" stroke="#78839d" stroke-width="2.6" stroke-linecap="round"/><line x1="28.4" y1="40.7" x2="27.2" y2="40.3" stroke="#7b839b" stroke-width="2.7" stroke-linecap="round"/><line x1="27.2" y1="40.3" x2="26.0" y2="39.8" stroke="#7d8499" stroke-width="2.7" stroke-linecap="round"/><line x1="26.0" y1="39.8" x2="24.9" y2="39.1" stroke="#7f8597" stroke-width="2.7" stroke-linecap="round"/><line x1="24.9" y1="39.1" x2="23.9" y2="38.2" stroke="#828695" stroke-width="2.7" stroke-linecap="round"/><line x1="23.9" y1="38.2" x2="23.0" y2="37.2" stroke="#848693" stroke-width="2.7" stroke-linecap="round"/><line x1="23.0" y1="37.2" x2="22.2" y2="36.1" stroke="#878791" stroke-width="2.7" stroke-linecap="round"/><line x1="22.2" y1="36.1" x2="21.6" y2="34.8" stroke="#89888f" stroke-width="2.8" stroke-linecap="round"/><line x1="21.6" y1="34.8" x2="21.1" y2="33.4" stroke="#8b898c" stroke-width="2.8" stroke-linecap="round"/><line x1="21.1" y1="33.4" x2="20.8" y2="32.0" stroke="#8e8a8a" stroke-width="2.8" stroke-linecap="round"/><line x1="20.8" y1="32.0" x2="20.7" y2="30.5" stroke="#908a88" stroke-width="2.8" stroke-linecap="round"/><line x1="20.7" y1="30.5" x2="20.8" y2="29.0" stroke="#938b86" stroke-width="2.8" stroke-linecap="round"/><line x1="20.8" y1="29.0" x2="21.1" y2="27.5" stroke="#958c84" stroke-width="2.8" stroke-linecap="round"/><line x1="21.1" y1="27.5" x2="21.6" y2="26.0" stroke="#978d82" stroke-width="2.9" stroke-linecap="round"/><line x1="21.6" y1="26.0" x2="22.3" y2="24.6" stroke="#9a8d80" stroke-width="2.9" stroke-linecap="round"/><line x1="22.3" y1="24.6" x2="23.2" y2="23.2" stroke="#9c8e7e" stroke-width="2.9" stroke-linecap="round"/><line x1="23.2" y1="23.2" x2="24.3" y2="22.0" stroke="#9e8f7c" stroke-width="2.9" stroke-linecap="round"/><line x1="24.3" y1="22.0" x2="25.6" y2="20.9" stroke="#a1907a" stroke-width="2.9" stroke-linecap="round"/><line x1="25.6" y1="20.9" x2="27.0" y2="20.0" stroke="#a39178" stroke-width="2.9" stroke-linecap="round"/><line x1="27.0" y1="20.0" x2="28.6" y2="19.2" stroke="#a69175" stroke-width="3.0" stroke-linecap="round"/><line x1="28.6" y1="19.2" x2="30.3" y2="18.7" stroke="#a89273" stroke-width="3.0" stroke-linecap="round"/><line x1="30.3" y1="18.7" x2="32.0" y2="18.4" stroke="#aa9371" stroke-width="3.0" stroke-linecap="round"/><line x1="32.0" y1="18.4" x2="33.8" y2="18.3" stroke="#ad946f" stroke-width="3.0" stroke-linecap="round"/><line x1="33.8" y1="18.3" x2="35.6" y2="18.5" stroke="#af946d" stroke-width="3.0" stroke-linecap="round"/><line x1="35.6" y1="18.5" x2="37.4" y2="18.9" stroke="#b1956b" stroke-width="3.0" stroke-linecap="round"/><line x1="37.4" y1="18.9" x2="39.2" y2="19.5" stroke="#b49669" stroke-width="3.1" stroke-linecap="round"/><line x1="39.2" y1="19.5" x2="40.9" y2="20.4" stroke="#b69767" stroke-width="3.1" stroke-linecap="round"/><line x1="40.9" y1="20.4" x2="42.5" y2="21.5" stroke="#b99765" stroke-width="3.1" stroke-linecap="round"/><line x1="42.5" y1="21.5" x2="43.9" y2="22.9" stroke="#bb9863" stroke-width="3.1" stroke-linecap="round"/><line x1="43.9" y1="22.9" x2="45.2" y2="24.4" stroke="#bd9961" stroke-width="3.1" stroke-linecap="round"/><line x1="45.2" y1="24.4" x2="46.2" y2="26.1" stroke="#c09a5e" stroke-width="3.1" stroke-linecap="round"/><line x1="46.2" y1="26.1" x2="47.1" y2="28.0" stroke="#c29b5c" stroke-width="3.2" stroke-linecap="round"/><line x1="47.1" y1="28.0" x2="47.7" y2="29.9" stroke="#c49b5a" stroke-width="3.2" stroke-linecap="round"/><line x1="47.7" y1="29.9" x2="48.0" y2="32.0" stroke="#c79c58" stroke-width="3.2" stroke-linecap="round"/><line x1="48.0" y1="32.0" x2="48.1" y2="34.1" stroke="#c99d56" stroke-width="3.2" stroke-linecap="round"/><line x1="48.1" y1="34.1" x2="47.8" y2="36.2" stroke="#cc9e54" stroke-width="3.2" stroke-linecap="round"/><line x1="47.8" y1="36.2" x2="47.3" y2="38.4" stroke="#ce9e52" stroke-width="3.2" stroke-linecap="round"/><line x1="47.3" y1="38.4" x2="46.5" y2="40.4" stroke="#d09f50" stroke-width="3.2" stroke-linecap="round"/><line x1="46.5" y1="40.4" x2="45.5" y2="42.3" stroke="#d3a04e" stroke-width="3.3" stroke-linecap="round"/><line x1="45.5" y1="42.3" x2="44.2" y2="44.2" stroke="#d5a14c" stroke-width="3.3" stroke-linecap="round"/><line x1="44.2" y1="44.2" x2="42.6" y2="45.8" stroke="#d8a24a" stroke-width="3.3" stroke-linecap="round"/><line x1="42.6" y1="45.8" x2="40.8" y2="47.2" stroke="#d8a049" stroke-width="3.3" stroke-linecap="round"/><line x1="40.8" y1="47.2" x2="38.8" y2="48.4" stroke="#d89e48" stroke-width="3.3" stroke-linecap="round"/><line x1="38.8" y1="48.4" x2="36.7" y2="49.4" stroke="#d89c48" stroke-width="3.4" stroke-linecap="round"/><line x1="36.7" y1="49.4" x2="34.4" y2="50.0" stroke="#d89b47" stroke-width="3.4" stroke-linecap="round"/><line x1="34.4" y1="50.0" x2="32.0" y2="50.4" stroke="#d89947" stroke-width="3.4" stroke-linecap="round"/><line x1="32.0" y1="50.4" x2="29.6" y2="50.4" stroke="#d89746" stroke-width="3.4" stroke-linecap="round"/><line x1="29.6" y1="50.4" x2="27.1" y2="50.2" stroke="#d99546" stroke-width="3.4" stroke-linecap="round"/><line x1="27.1" y1="50.2" x2="24.7" y2="49.6" stroke="#d99445" stroke-width="3.4" stroke-linecap="round"/><line x1="24.7" y1="49.6" x2="22.4" y2="48.6" stroke="#d99245" stroke-width="3.5" stroke-linecap="round"/><line x1="22.4" y1="48.6" x2="20.2" y2="47.4" stroke="#d99044" stroke-width="3.5" stroke-linecap="round"/><line x1="20.2" y1="47.4" x2="18.1" y2="45.9" stroke="#d98f43" stroke-width="3.5" stroke-linecap="round"/><line x1="18.1" y1="45.9" x2="16.3" y2="44.1" stroke="#d98d43" stroke-width="3.5" stroke-linecap="round"/><line x1="16.3" y1="44.1" x2="14.7" y2="42.0" stroke="#d98b42" stroke-width="3.5" stroke-linecap="round"/><line x1="14.7" y1="42.0" x2="13.3" y2="39.7" stroke="#da8942" stroke-width="3.5" stroke-linecap="round"/><line x1="13.3" y1="39.7" x2="12.3" y2="37.3" stroke="#da8841" stroke-width="3.6" stroke-linecap="round"/><line x1="12.3" y1="37.3" x2="11.6" y2="34.7" stroke="#da8641" stroke-width="3.6" stroke-linecap="round"/><line x1="11.6" y1="34.7" x2="11.2" y2="32.0" stroke="#da8440" stroke-width="3.6" stroke-linecap="round"/><line x1="11.2" y1="32.0" x2="11.2" y2="29.3" stroke="#da8340" stroke-width="3.6" stroke-linecap="round"/><line x1="11.2" y1="29.3" x2="11.5" y2="26.5" stroke="#da813f" stroke-width="3.6" stroke-linecap="round"/><line x1="11.5" y1="26.5" x2="12.2" y2="23.8" stroke="#da7f3e" stroke-width="3.6" stroke-linecap="round"/><line x1="12.2" y1="23.8" x2="13.3" y2="21.2" stroke="#db7d3e" stroke-width="3.7" stroke-linecap="round"/><line x1="13.3" y1="21.2" x2="14.7" y2="18.7" stroke="#db7c3d" stroke-width="3.7" stroke-linecap="round"/><line x1="14.7" y1="18.7" x2="16.4" y2="16.4" stroke="#db7a3d" stroke-width="3.7" stroke-linecap="round"/><line x1="16.4" y1="16.4" x2="18.5" y2="14.4" stroke="#db783c" stroke-width="3.7" stroke-linecap="round"/><line x1="18.5" y1="14.4" x2="20.8" y2="12.6" stroke="#db763c" stroke-width="3.7" stroke-linecap="round"/><line x1="20.8" y1="12.6" x2="23.4" y2="11.1" stroke="#db753b" stroke-width="3.7" stroke-linecap="round"/><line x1="23.4" y1="11.1" x2="26.1" y2="10.0" stroke="#dc733b" stroke-width="3.8" stroke-linecap="round"/><line x1="26.1" y1="10.0" x2="29.0" y2="9.2" stroke="#dc713a" stroke-width="3.8" stroke-linecap="round"/><line x1="29.0" y1="9.2" x2="32.0" y2="8.8" stroke="#dc7039" stroke-width="3.8" stroke-linecap="round"/><line x1="32.0" y1="8.8" x2="35.1" y2="8.8" stroke="#dc6e39" stroke-width="3.8" stroke-linecap="round"/><line x1="35.1" y1="8.8" x2="38.1" y2="9.2" stroke="#dc6c38" stroke-width="3.8" stroke-linecap="round"/><line x1="38.1" y1="9.2" x2="41.1" y2="10.0" stroke="#dc6a38" stroke-width="3.8" stroke-linecap="round"/><line x1="41.1" y1="10.0" x2="44.0" y2="11.2" stroke="#dc6937" stroke-width="3.9" stroke-linecap="round"/><line x1="44.0" y1="11.2" x2="46.7" y2="12.8" stroke="#dd6737" stroke-width="3.9" stroke-linecap="round"/><line x1="46.7" y1="12.8" x2="49.3" y2="14.7" stroke="#dd6536" stroke-width="3.9" stroke-linecap="round"/><line x1="49.3" y1="14.7" x2="51.5" y2="17.0" stroke="#dd6436" stroke-width="3.9" stroke-linecap="round"/><line x1="51.5" y1="17.0" x2="53.5" y2="19.6" stroke="#dd6235" stroke-width="3.9" stroke-linecap="round"/><line x1="53.5" y1="19.6" x2="55.1" y2="22.4" stroke="#dd6034" stroke-width="3.9" stroke-linecap="round"/><line x1="55.1" y1="22.4" x2="56.3" y2="25.5" stroke="#dd5e34" stroke-width="4.0" stroke-linecap="round"/><line x1="56.3" y1="25.5" x2="57.2" y2="28.7" stroke="#dd5d33" stroke-width="4.0" stroke-linecap="round"/><line x1="57.2" y1="28.7" x2="57.6" y2="32.0" stroke="#de5b33" stroke-width="4.0" stroke-linecap="round"/><line x1="57.6" y1="32.0" x2="57.6" y2="35.4" stroke="#de5932" stroke-width="4.0" stroke-linecap="round"/><line x1="57.6" y1="35.4" x2="57.1" y2="38.7" stroke="#de5732" stroke-width="4.0" stroke-linecap="round"/><line x1="57.1" y1="38.7" x2="56.2" y2="42.0" stroke="#de5631" stroke-width="4.0" stroke-linecap="round"/><line x1="56.2" y1="42.0" x2="54.9" y2="45.2" stroke="#de5431" stroke-width="4.1" stroke-linecap="round"/><line x1="54.9" y1="45.2" x2="53.1" y2="48.2" stroke="#de5230" stroke-width="4.1" stroke-linecap="round"/><line x1="53.1" y1="48.2" x2="51.0" y2="51.0" stroke="#de512f" stroke-width="4.1" stroke-linecap="round"/><line x1="51.0" y1="51.0" x2="48.4" y2="53.4" stroke="#df4f2f" stroke-width="4.1" stroke-linecap="round"/><line x1="48.4" y1="53.4" x2="45.6" y2="55.6" stroke="#df4d2e" stroke-width="4.1" stroke-linecap="round"/><line x1="45.6" y1="55.6" x2="42.5" y2="57.3" stroke="#df4b2e" stroke-width="4.1" stroke-linecap="round"/><line x1="42.5" y1="57.3" x2="39.1" y2="58.7" stroke="#df4a2d" stroke-width="4.2" stroke-linecap="round"/><line x1="39.1" y1="58.7" x2="35.6" y2="59.6" stroke="#df482d" stroke-width="4.2" stroke-linecap="round"/><line x1="35.6" y1="59.6" x2="32.0" y2="60.0" stroke="#df462c" stroke-width="4.2" stroke-linecap="round"/></svg>